<svg width="38" height="38" viewBox="0 0 38 38" fill="none" xmlns="http://www.w3.org/2000/svg">
<path d="M30.0833 22.1667H32.0449C33.8038 22.1667 35.1232 23.8775 34.7782 25.7111L34.3588 27.9405C33.9513 30.1071 32.1618 31.6667 30.0833 31.6667" stroke="#00B67A" stroke-width="1.5"/>
<path d="M7.91667 22.1667H5.95512C4.19607 22.1667 2.87677 23.8775 3.22175 25.7111L3.64114 27.9405C4.04876 30.1071 5.83824 31.6667 7.91667 31.6667" stroke="#00B67A" stroke-width="1.5"/>
<path d="M28.9269 16.625L29.7526 24.0614C30.1958 29.1001 30.4174 31.6193 28.9269 33.2262C27.4365 34.8333 24.8781 34.8333 19.7616 34.8333H18.2384C13.1219 34.8333 10.5636 34.8333 9.07311 33.2262C7.58261 31.6193 7.80424 29.1001 8.24748 24.0614L9.07311 16.6248" stroke="#00B67A" stroke-width="1.5" stroke-linejoin="round"/>
<path d="M23.75 7.91669C23.75 5.29334 21.6234 3.16669 19 3.16669C16.3766 3.16669 14.25 5.29334 14.25 7.91669" stroke="#00B67A" stroke-width="1.5"/>
<path d="M8.33103 14.0437C7.93491 11.8022 7.73685 10.6815 8.13136 9.82351C8.39476 9.25061 8.83189 8.76396 9.38775 8.42473C10.2202 7.91669 11.425 7.91669 13.8344 7.91669H24.1656C26.575 7.91669 27.7797 7.91669 28.6123 8.42473C29.1682 8.76396 29.6052 9.25061 29.8686 9.82351C30.2632 10.6815 30.0651 11.8022 29.669 14.0437L29.5881 14.5018C29.4345 15.371 29.3577 15.8055 29.2062 16.2053C28.9443 16.8958 28.5165 17.5198 27.9561 18.0283C27.6319 18.3227 27.2432 18.5671 26.4659 19.0559C25.735 19.5154 25.3696 19.7451 24.9834 19.9255C24.3167 20.2369 23.5996 20.4416 22.8618 20.5314C22.4343 20.5834 21.995 20.5834 21.1168 20.5834H16.8832C16.005 20.5834 15.5658 20.5834 15.1383 20.5314C14.4004 20.4416 13.6834 20.2369 13.0167 19.9255C12.6304 19.7451 12.265 19.5154 11.5342 19.0559C10.7568 18.5671 10.3681 18.3227 10.0438 18.0283C9.48352 17.5198 9.05572 16.8958 8.7939 16.2053C8.64236 15.8055 8.56557 15.371 8.41197 14.5018L8.33103 14.0437Z" stroke="#00B67A" stroke-width="1.5"/>
<path d="M19 15.8371L19.0138 15.8335" stroke="#00B67A" stroke-width="2" stroke-linecap="round" stroke-linejoin="round"/>
</svg>
