<svg width="38" height="38" viewBox="0 0 38 38" fill="none" xmlns="http://www.w3.org/2000/svg">
<path d="M3.16666 22.1667C3.16666 16.6146 3.16666 13.8384 4.60426 11.9699C4.86744 11.6278 5.16148 11.3142 5.48217 11.0334C7.23389 9.5 9.83648 9.5 15.0417 9.5H22.9583C28.1635 9.5 30.7661 9.5 32.5179 11.0334C32.8385 11.3142 33.1325 11.6278 33.3957 11.9699C34.8333 13.8384 34.8333 16.6146 34.8333 22.1667C34.8333 27.7188 34.8333 30.495 33.3957 32.3635C33.1325 32.7055 32.8385 33.0192 32.5179 33.2999C30.7661 34.8333 28.1635 34.8333 22.9583 34.8333H15.0417C9.83648 34.8333 7.23389 34.8333 5.48217 33.2999C5.16148 33.0192 4.86744 32.7055 4.60426 32.3635C3.16666 30.495 3.16666 27.7188 3.16666 22.1667Z" stroke="#00B67A" stroke-width="1.5"/>
<path d="M25.3333 9.50002C25.3333 6.51446 25.3333 5.02167 24.4058 4.09419C23.4783 3.16669 21.9855 3.16669 19 3.16669C16.0145 3.16669 14.5217 3.16669 13.5942 4.09419C12.6667 5.02167 12.6667 6.51446 12.6667 9.50002" stroke="#00B67A" stroke-width="1.5" stroke-linecap="round" stroke-linejoin="round"/>
<path d="M19 17.4166C17.251 17.4166 15.8333 18.48 15.8333 19.7916C15.8333 21.1033 17.251 22.1666 19 22.1666C20.7489 22.1666 22.1667 23.23 22.1667 24.5416C22.1667 25.8533 20.7489 26.9166 19 26.9166M19 17.4166C20.3788 17.4166 21.5517 18.0775 21.9865 19M19 17.4166V15.8333M19 26.9166C17.6212 26.9166 16.4483 26.2558 16.0135 25.3333M19 26.9166V28.5" stroke="#00B67A" stroke-width="1.5" stroke-linecap="round"/>
<path d="M9.49999 19H3.16666" stroke="#00B67A" stroke-width="1.5" stroke-linecap="round"/>
<path d="M34.8333 19H28.5" stroke="#00B67A" stroke-width="1.5" stroke-linecap="round"/>
</svg>
