<svg width="38" height="38" viewBox="0 0 38 38" fill="none" xmlns="http://www.w3.org/2000/svg">
<path d="M22.1776 15.8387V19.7947M15.8701 19.7947V15.8387M13.5119 21.1893C13.45 20.4375 14.0961 19.7963 14.9153 19.7963H23.1385C23.9577 19.7963 24.6037 20.4375 24.542 21.1893L24.3727 23.2432C24.2511 24.7197 23.7191 26.1426 22.8277 27.3751L22.275 28.1393C21.7533 28.8609 20.8737 29.2944 19.9318 29.2944H18.122C17.1801 29.2944 16.3007 28.8609 15.7788 28.1393L15.2261 27.3751C14.3346 26.1426 13.8026 24.7197 13.681 23.2432L13.5119 21.1893Z" stroke="#00B67A" stroke-width="1.5" stroke-linecap="round"/>
<path d="M23.7549 34.8349C26.5759 34.8045 27.785 34.6555 29.2741 34.0434C30.5297 33.5296 31.318 32.8103 32.0019 31.5335C33.0282 29.6172 33.3705 27.4194 33.6769 25.2656L34.7931 17.4217C34.8747 16.1652 34.8346 15.2284 34.5419 14.3086C33.9826 12.5524 32.474 11.3127 31.0041 10.2074C24.1648 5.06555 20.9504 3.01091 19.0244 3.17445C17.1982 3.0301 14.7112 4.50614 6.81889 10.3926C5.50173 11.3751 4.18212 12.4483 3.58224 13.9816C2.74252 16.128 3.38763 18.5579 3.7413 20.8365C4.1571 23.5152 4.65086 26.7835 5.53796 30.5306C5.59245 30.7608 5.66971 30.9863 5.77349 31.1986C6.56036 32.8093 7.25135 33.4807 8.77461 34.0434C10.3561 34.6277 15.3168 35.1372 17.8051 34.5773C18.6442 34.3884 19.0244 33.5553 19.0244 32.6919V29.2944" stroke="#00B67A" stroke-width="1.5" stroke-linecap="round" stroke-linejoin="round"/>
</svg>
