<svg width="38" height="38" viewBox="0 0 38 38" fill="none" xmlns="http://www.w3.org/2000/svg">
<path d="M19 7.12484C19 4.93871 17.2278 3.1665 15.0417 3.1665C12.8556 3.1665 11.0834 4.93871 11.0834 7.12484C8.46001 7.12484 6.33335 9.25149 6.33335 11.8748C6.33335 12.7752 6.58387 13.6171 7.019 14.3345C4.82486 14.7542 3.16669 16.6835 3.16669 18.9999C3.16669 21.3163 4.82486 23.2454 7.019 23.6652C6.58387 24.3826 6.33335 25.2244 6.33335 26.1249C6.33335 28.7483 8.46001 30.8749 11.0834 30.8749C11.0834 33.061 12.8556 34.8332 15.0417 34.8332C17.2278 34.8332 19 33.061 19 30.8749" stroke="#00B67A" stroke-width="1.5" stroke-linecap="round" stroke-linejoin="round"/>
<path d="M19 30.8749C19 33.061 20.7722 34.8332 22.9583 34.8332C25.1444 34.8332 26.9167 33.061 26.9167 30.8749C29.5401 30.8749 31.6667 28.7483 31.6667 26.1249C31.6667 25.2244 31.4162 24.3826 30.9811 23.6652C33.1751 23.2454 34.8333 21.3163 34.8333 18.9999C34.8333 16.6835 33.1751 14.7542 30.9811 14.3345C31.4162 13.6171 31.6667 12.7752 31.6667 11.8748C31.6667 9.25149 29.5401 7.12484 26.9167 7.12484C26.9167 4.93871 25.1444 3.1665 22.9583 3.1665C20.7722 3.1665 19 4.93871 19 7.12484" stroke="#00B67A" stroke-width="1.5" stroke-linecap="round" stroke-linejoin="round"/>
<path d="M16.6044 11.0847V14.2181M11.0833 16.6269H14.3323M23.7866 16.6269H27.0354M23.7866 21.3346H27.0354M11.0833 21.3346H14.3323M16.6044 23.7818V26.9152M21.3948 23.7818V26.9152M21.3777 11.0847V14.2181M15.9156 23.6999H22.2032C23.0775 23.6999 23.7866 22.9911 23.7866 22.1166V15.8014C23.7866 14.927 23.0775 14.2181 22.2032 14.2181H15.9156C15.0412 14.2181 14.3323 14.927 14.3323 15.8014V22.1166C14.3323 22.9911 15.0412 23.6999 15.9156 23.6999Z" stroke="#00B67A" stroke-width="1.5" stroke-linecap="round"/>
</svg>
