<svg width="38" height="38" viewBox="0 0 38 38" fill="none" xmlns="http://www.w3.org/2000/svg">
<path d="M7.1225 7.91673C5.05879 7.88203 4.06865 8.28869 3.51964 9.72575C3.18631 10.5983 3.16666 11.5532 3.16666 12.4874V28.5C3.33739 29.5051 3.62253 30.1718 4.342 30.7168C5.51477 31.6051 7.07299 31.7265 8.52037 31.9886C11.694 32.5633 14.4545 33.5367 18.99 34.8333M18.99 34.8333C23.1903 33.5341 26.1939 32.6327 29.0087 32.1135C31.2601 31.6982 34.1237 31.4182 34.6305 29.1845C34.7635 28.598 34.8245 27.8624 34.8134 26.9167V14.6715C34.8134 12.29 35.1734 9.09654 33.0009 8.12388C32.458 7.88077 31.7708 7.83869 30.8576 7.91673M18.99 34.8333V23.75" stroke="#00B67A" stroke-width="1.5" stroke-linecap="round" stroke-linejoin="round"/>
<path d="M18.9888 19C23.3583 19 26.9005 15.4556 26.9005 11.0834C26.9005 6.71111 23.3583 3.16669 18.9888 3.16669M18.9888 19C14.6193 19 11.0771 15.4556 11.0771 11.0834C11.0771 6.71111 14.6193 3.16669 18.9888 3.16669M18.9888 19C20.7368 19 22.1535 15.4556 22.1535 11.0834C22.1535 6.71111 20.7368 3.16669 18.9888 3.16669M18.9888 19C17.2409 19 15.8242 15.4556 15.8242 11.0834C15.8242 6.71111 17.2409 3.16669 18.9888 3.16669" stroke="#00B67A" stroke-width="1.5" stroke-linecap="round" stroke-linejoin="round"/>
</svg>
