<svg width="38" height="38" viewBox="0 0 38 38" fill="none" xmlns="http://www.w3.org/2000/svg">
<path d="M6.33333 22.1667H34.8333" stroke="#00B67A" stroke-width="1.5" stroke-linecap="round" stroke-linejoin="round"/>
<path d="M7.91667 34.8334L9.39006 33.3599C10.2273 32.5228 10.6459 32.1042 11.1733 31.8662C11.7008 31.6281 12.2916 31.5912 13.4733 31.5174L18.623 31.1955C21.154 31.0373 22.4195 30.9581 23.5331 30.4235C24.6468 29.8886 25.4997 28.9503 27.2055 27.0739L31.6667 22.1667H26.125L23.2862 25.0054C23.0975 25.1942 23.003 25.2887 22.9048 25.372C22.3997 25.8011 21.7727 26.0607 21.1123 26.1146C20.9838 26.125 20.8503 26.125 20.5833 26.125M20.5833 26.125C20.5833 25.3892 20.5833 25.0214 20.5225 24.7155C20.2727 23.4593 19.2907 22.4773 18.0345 22.2275C17.7286 22.1667 17.3608 22.1667 16.625 22.1667H15.3876C13.733 22.1667 12.9056 22.1667 12.1298 22.3662C11.552 22.5147 10.998 22.7441 10.4844 23.0477C9.79477 23.4552 9.20976 24.0402 8.03976 25.2103L3.16667 30.0834M20.5833 26.125H15.0417" stroke="#00B67A" stroke-width="1.5" stroke-linecap="round" stroke-linejoin="round"/>
<path d="M7.91667 18.2084C7.91667 11.2127 13.5877 5.54169 20.5833 5.54169M20.5833 5.54169C27.579 5.54169 33.25 11.2127 33.25 18.2084M20.5833 5.54169V3.16669" stroke="#00B67A" stroke-width="1.5" stroke-linecap="round" stroke-linejoin="round"/>
</svg>
